ISO-10303-21;
HEADER;
/* Generated by software containing ST-Developer
 * from STEP Tools, Inc. (www.steptools.com) 
 */

FILE_DESCRIPTION(
/* description */ (''),
/* implementation_level */ '2;1');

FILE_NAME(
/* name */ 'caster wheel v2.step',
/* time_stamp */ '2022-11-22T16:08:33+03:00',
/* author */ (''),
/* organization */ (''),
/* preprocessor_version */ 'ST-DEVELOPER v19.2',
/* originating_system */ 'Autodesk Translation Framework v11.17.0.187',

/* authorisation */ '');

FILE_SCHEMA (('AUTOMOTIVE_DESIGN { 1 0 10303 214 3 1 1 }'));
ENDSEC;

DATA;
#10=MECHANICAL_DESIGN_GEOMETRIC_PRESENTATION_REPRESENTATION('',(#87,#88),
#639);
#11=ITEM_DEFINED_TRANSFORMATION($,$,#368,#414);
#12=ITEM_DEFINED_TRANSFORMATION($,$,#371,#415);
#13=(
REPRESENTATION_RELATIONSHIP($,$,#653,#652)
REPRESENTATION_RELATIONSHIP_WITH_TRANSFORMATION(#11)
SHAPE_REPRESENTATION_RELATIONSHIP()
);
#14=(
REPRESENTATION_RELATIONSHIP($,$,#654,#652)
REPRESENTATION_RELATIONSHIP_WITH_TRANSFORMATION(#12)
SHAPE_REPRESENTATION_RELATIONSHIP()
);
#15=CONTEXT_DEPENDENT_SHAPE_REPRESENTATION(#13,#650);
#16=CONTEXT_DEPENDENT_SHAPE_REPRESENTATION(#14,#651);
#17=NEXT_ASSEMBLY_USAGE_OCCURRENCE('Sphere:1','Sphere:1','Sphere:1',#656,
#657,'Sphere:1');
#18=NEXT_ASSEMBLY_USAGE_OCCURRENCE('Case:1','Case:1','Case:1',#656,#658,
'Case:1');
#19=FACE_BOUND('',#117,.T.);
#20=FACE_BOUND('',#120,.T.);
#21=FACE_BOUND('',#132,.T.);
#22=FACE_BOUND('',#134,.T.);
#23=FACE_BOUND('',#135,.T.);
#24=TOROIDAL_SURFACE('',#376,11.25,3.);
#25=TOROIDAL_SURFACE('',#384,16.25,2.);
#26=PLANE('',#375);
#27=PLANE('',#383);
#28=PLANE('',#391);
#29=PLANE('',#402);
#30=PLANE('',#405);
#31=PLANE('',#408);
#32=PLANE('',#411);
#33=PLANE('',#412);
#34=PLANE('',#413);
#35=LINE('',#545,#55);
#36=LINE('',#556,#56);
#37=LINE('',#575,#57);
#38=LINE('',#578,#58);
#39=LINE('',#585,#59);
#40=LINE('',#589,#60);
#41=LINE('',#596,#61);
#42=LINE('',#599,#62);
#43=LINE('',#602,#63);
#44=LINE('',#603,#64);
#45=LINE('',#604,#65);
#46=LINE('',#608,#66);
#47=LINE('',#611,#67);
#48=LINE('',#612,#68);
#49=LINE('',#616,#69);
#50=LINE('',#619,#70);
#51=LINE('',#620,#71);
#52=LINE('',#624,#72);
#53=LINE('',#626,#73);
#54=LINE('',#627,#74);
#55=VECTOR('',#430,7.75);
#56=VECTOR('',#445,14.25);
#57=VECTOR('',#468,10.);
#58=VECTOR('',#471,10.);
#59=VECTOR('',#478,2.);
#60=VECTOR('',#483,2.);
#61=VECTOR('',#490,10.);
#62=VECTOR('',#493,10.);
#63=VECTOR('',#496,10.);
#64=VECTOR('',#497,10.);
#65=VECTOR('',#498,10.);
#66=VECTOR('',#503,10.);
#67=VECTOR('',#506,10.);
#68=VECTOR('',#507,10.);
#69=VECTOR('',#512,10.);
#70=VECTOR('',#515,10.);
#71=VECTOR('',#516,10.);
#72=VECTOR('',#521,10.);
#73=VECTOR('',#524,10.);
#74=VECTOR('',#525,10.);
#75=CYLINDRICAL_SURFACE('',#372,7.75);
#76=CYLINDRICAL_SURFACE('',#380,14.25);
#77=CYLINDRICAL_SURFACE('',#394,2.);
#78=CYLINDRICAL_SURFACE('',#397,2.);
#79=CYLINDRICAL_SURFACE('',#399,1.5);
#80=CYLINDRICAL_SURFACE('',#403,16.25);
#81=CYLINDRICAL_SURFACE('',#406,1.5);
#82=CYLINDRICAL_SURFACE('',#409,16.25);
#83=SHAPE_REPRESENTATION_RELATIONSHIP('SRR','None',#653,#85);
#84=SHAPE_REPRESENTATION_RELATIONSHIP('SRR','None',#654,#86);
#85=ADVANCED_BREP_SHAPE_REPRESENTATION('',(#89),#637);
#86=ADVANCED_BREP_SHAPE_REPRESENTATION('',(#90),#638);
#87=STYLED_ITEM('',(#672),#89);
#88=STYLED_ITEM('',(#673),#90);
#89=MANIFOLD_SOLID_BREP('Body1',#342);
#90=MANIFOLD_SOLID_BREP('Body1',#343);
#91=FACE_OUTER_BOUND('',#111,.T.);
#92=FACE_OUTER_BOUND('',#112,.T.);
#93=FACE_OUTER_BOUND('',#113,.T.);
#94=FACE_OUTER_BOUND('',#114,.T.);
#95=FACE_OUTER_BOUND('',#115,.T.);
#96=FACE_OUTER_BOUND('',#116,.T.);
#97=FACE_OUTER_BOUND('',#118,.T.);
#98=FACE_OUTER_BOUND('',#119,.T.);
#99=FACE_OUTER_BOUND('',#121,.T.);
#100=FACE_OUTER_BOUND('',#122,.T.);
#101=FACE_OUTER_BOUND('',#123,.T.);
#102=FACE_OUTER_BOUND('',#124,.T.);
#103=FACE_OUTER_BOUND('',#125,.T.);
#104=FACE_OUTER_BOUND('',#126,.T.);
#105=FACE_OUTER_BOUND('',#127,.T.);
#106=FACE_OUTER_BOUND('',#128,.T.);
#107=FACE_OUTER_BOUND('',#129,.T.);
#108=FACE_OUTER_BOUND('',#130,.T.);
#109=FACE_OUTER_BOUND('',#131,.T.);
#110=FACE_OUTER_BOUND('',#133,.T.);
#111=EDGE_LOOP('',(#233,#234));
#112=EDGE_LOOP('',(#235,#236,#237,#238));
#113=EDGE_LOOP('',(#239));
#114=EDGE_LOOP('',(#240,#241,#242,#243));
#115=EDGE_LOOP('',(#244,#245,#246,#247,#248));
#116=EDGE_LOOP('',(#249));
#117=EDGE_LOOP('',(#250));
#118=EDGE_LOOP('',(#251,#252,#253,#254,#255,#256,#257,#258,#259));
#119=EDGE_LOOP('',(#260,#261,#262,#263));
#120=EDGE_LOOP('',(#264));
#121=EDGE_LOOP('',(#265,#266,#267,#268));
#122=EDGE_LOOP('',(#269,#270,#271,#272));
#123=EDGE_LOOP('',(#273,#274,#275,#276));
#124=EDGE_LOOP('',(#277,#278,#279,#280));
#125=EDGE_LOOP('',(#281,#282,#283,#284));
#126=EDGE_LOOP('',(#285,#286,#287,#288));
#127=EDGE_LOOP('',(#289,#290,#291,#292));
#128=EDGE_LOOP('',(#293,#294,#295,#296));
#129=EDGE_LOOP('',(#297,#298,#299,#300,#301));
#130=EDGE_LOOP('',(#302,#303,#304,#305));
#131=EDGE_LOOP('',(#306,#307,#308,#309));
#132=EDGE_LOOP('',(#310));
#133=EDGE_LOOP('',(#311,#312,#313,#314,#315,#316,#317,#318));
#134=EDGE_LOOP('',(#319));
#135=EDGE_LOOP('',(#320));
#136=CIRCLE('',#370,7.);
#137=CIRCLE('',#373,7.75);
#138=CIRCLE('',#374,7.75);
#139=CIRCLE('',#377,11.25);
#140=CIRCLE('',#378,3.);
#141=CIRCLE('',#379,14.25);
#142=CIRCLE('',#381,14.25);
#143=CIRCLE('',#382,14.25);
#144=CIRCLE('',#385,2.);
#145=CIRCLE('',#386,16.25);
#146=CIRCLE('',#387,16.25);
#147=CIRCLE('',#388,16.25);
#148=CIRCLE('',#389,16.25);
#149=CIRCLE('',#390,16.25);
#150=CIRCLE('',#392,1.5);
#151=CIRCLE('',#393,2.);
#152=CIRCLE('',#395,2.);
#153=CIRCLE('',#396,2.);
#154=CIRCLE('',#398,2.);
#155=CIRCLE('',#400,1.5);
#156=CIRCLE('',#401,1.5);
#157=CIRCLE('',#404,16.25);
#158=CIRCLE('',#407,1.5);
#159=CIRCLE('',#410,16.25);
#160=VERTEX_POINT('',#537);
#161=VERTEX_POINT('',#538);
#162=VERTEX_POINT('',#542);
#163=VERTEX_POINT('',#544);
#164=VERTEX_POINT('',#549);
#165=VERTEX_POINT('',#551);
#166=VERTEX_POINT('',#555);
#167=VERTEX_POINT('',#557);
#168=VERTEX_POINT('',#562);
#169=VERTEX_POINT('',#564);
#170=VERTEX_POINT('',#566);
#171=VERTEX_POINT('',#568);
#172=VERTEX_POINT('',#570);
#173=VERTEX_POINT('',#574);
#174=VERTEX_POINT('',#576);
#175=VERTEX_POINT('',#579);
#176=VERTEX_POINT('',#582);
#177=VERTEX_POINT('',#584);
#178=VERTEX_POINT('',#588);
#179=VERTEX_POINT('',#592);
#180=VERTEX_POINT('',#593);
#181=VERTEX_POINT('',#595);
#182=VERTEX_POINT('',#597);
#183=VERTEX_POINT('',#601);
#184=VERTEX_POINT('',#606);
#185=VERTEX_POINT('',#610);
#186=VERTEX_POINT('',#614);
#187=VERTEX_POINT('',#618);
#188=VERTEX_POINT('',#622);
#189=EDGE_CURVE('',#160,#161,#136,.T.);
#190=EDGE_CURVE('',#162,#162,#137,.T.);
#191=EDGE_CURVE('',#162,#163,#35,.T.);
#192=EDGE_CURVE('',#163,#163,#138,.T.);
#193=EDGE_CURVE('',#164,#164,#139,.T.);
#194=EDGE_CURVE('',#164,#165,#140,.T.);
#195=EDGE_CURVE('',#165,#165,#141,.T.);
#196=EDGE_CURVE('',#165,#166,#36,.T.);
#197=EDGE_CURVE('',#167,#166,#142,.T.);
#198=EDGE_CURVE('',#166,#167,#143,.T.);
#199=EDGE_CURVE('',#167,#168,#144,.T.);
#200=EDGE_CURVE('',#168,#169,#145,.T.);
#201=EDGE_CURVE('',#169,#170,#146,.T.);
#202=EDGE_CURVE('',#170,#171,#147,.T.);
#203=EDGE_CURVE('',#171,#172,#148,.T.);
#204=EDGE_CURVE('',#172,#168,#149,.T.);
#205=EDGE_CURVE('',#169,#173,#37,.T.);
#206=EDGE_CURVE('',#173,#174,#150,.T.);
#207=EDGE_CURVE('',#174,#170,#38,.T.);
#208=EDGE_CURVE('',#175,#175,#151,.T.);
#209=EDGE_CURVE('',#176,#176,#152,.T.);
#210=EDGE_CURVE('',#176,#177,#39,.T.);
#211=EDGE_CURVE('',#177,#177,#153,.T.);
#212=EDGE_CURVE('',#175,#178,#40,.T.);
#213=EDGE_CURVE('',#178,#178,#154,.T.);
#214=EDGE_CURVE('',#179,#180,#155,.T.);
#215=EDGE_CURVE('',#180,#181,#41,.T.);
#216=EDGE_CURVE('',#182,#181,#156,.T.);
#217=EDGE_CURVE('',#179,#182,#42,.T.);
#218=EDGE_CURVE('',#179,#183,#43,.T.);
#219=EDGE_CURVE('',#171,#182,#44,.T.);
#220=EDGE_CURVE('',#183,#171,#45,.T.);
#221=EDGE_CURVE('',#184,#183,#157,.T.);
#222=EDGE_CURVE('',#184,#170,#46,.T.);
#223=EDGE_CURVE('',#185,#184,#47,.T.);
#224=EDGE_CURVE('',#185,#174,#48,.T.);
#225=EDGE_CURVE('',#186,#185,#158,.T.);
#226=EDGE_CURVE('',#186,#173,#49,.T.);
#227=EDGE_CURVE('',#186,#187,#50,.T.);
#228=EDGE_CURVE('',#187,#169,#51,.T.);
#229=EDGE_CURVE('',#188,#187,#159,.T.);
#230=EDGE_CURVE('',#188,#172,#52,.T.);
#231=EDGE_CURVE('',#180,#188,#53,.T.);
#232=EDGE_CURVE('',#181,#172,#54,.T.);
#233=ORIENTED_EDGE('',*,*,#189,.T.);
#234=ORIENTED_EDGE('',*,*,#189,.F.);
#235=ORIENTED_EDGE('',*,*,#190,.F.);
#236=ORIENTED_EDGE('',*,*,#191,.T.);
#237=ORIENTED_EDGE('',*,*,#192,.T.);
#238=ORIENTED_EDGE('',*,*,#191,.F.);
#239=ORIENTED_EDGE('',*,*,#192,.F.);
#240=ORIENTED_EDGE('',*,*,#193,.T.);
#241=ORIENTED_EDGE('',*,*,#194,.T.);
#242=ORIENTED_EDGE('',*,*,#195,.T.);
#243=ORIENTED_EDGE('',*,*,#194,.F.);
#244=ORIENTED_EDGE('',*,*,#195,.F.);
#245=ORIENTED_EDGE('',*,*,#196,.T.);
#246=ORIENTED_EDGE('',*,*,#197,.F.);
#247=ORIENTED_EDGE('',*,*,#198,.F.);
#248=ORIENTED_EDGE('',*,*,#196,.F.);
#249=ORIENTED_EDGE('',*,*,#193,.F.);
#250=ORIENTED_EDGE('',*,*,#190,.T.);
#251=ORIENTED_EDGE('',*,*,#198,.T.);
#252=ORIENTED_EDGE('',*,*,#199,.T.);
#253=ORIENTED_EDGE('',*,*,#200,.T.);
#254=ORIENTED_EDGE('',*,*,#201,.T.);
#255=ORIENTED_EDGE('',*,*,#202,.T.);
#256=ORIENTED_EDGE('',*,*,#203,.T.);
#257=ORIENTED_EDGE('',*,*,#204,.T.);
#258=ORIENTED_EDGE('',*,*,#199,.F.);
#259=ORIENTED_EDGE('',*,*,#197,.T.);
#260=ORIENTED_EDGE('',*,*,#201,.F.);
#261=ORIENTED_EDGE('',*,*,#205,.T.);
#262=ORIENTED_EDGE('',*,*,#206,.T.);
#263=ORIENTED_EDGE('',*,*,#207,.T.);
#264=ORIENTED_EDGE('',*,*,#208,.T.);
#265=ORIENTED_EDGE('',*,*,#209,.F.);
#266=ORIENTED_EDGE('',*,*,#210,.T.);
#267=ORIENTED_EDGE('',*,*,#211,.T.);
#268=ORIENTED_EDGE('',*,*,#210,.F.);
#269=ORIENTED_EDGE('',*,*,#208,.F.);
#270=ORIENTED_EDGE('',*,*,#212,.T.);
#271=ORIENTED_EDGE('',*,*,#213,.T.);
#272=ORIENTED_EDGE('',*,*,#212,.F.);
#273=ORIENTED_EDGE('',*,*,#214,.T.);
#274=ORIENTED_EDGE('',*,*,#215,.T.);
#275=ORIENTED_EDGE('',*,*,#216,.F.);
#276=ORIENTED_EDGE('',*,*,#217,.F.);
#277=ORIENTED_EDGE('',*,*,#218,.F.);
#278=ORIENTED_EDGE('',*,*,#217,.T.);
#279=ORIENTED_EDGE('',*,*,#219,.F.);
#280=ORIENTED_EDGE('',*,*,#220,.F.);
#281=ORIENTED_EDGE('',*,*,#221,.T.);
#282=ORIENTED_EDGE('',*,*,#220,.T.);
#283=ORIENTED_EDGE('',*,*,#202,.F.);
#284=ORIENTED_EDGE('',*,*,#222,.F.);
#285=ORIENTED_EDGE('',*,*,#223,.T.);
#286=ORIENTED_EDGE('',*,*,#222,.T.);
#287=ORIENTED_EDGE('',*,*,#207,.F.);
#288=ORIENTED_EDGE('',*,*,#224,.F.);
#289=ORIENTED_EDGE('',*,*,#225,.T.);
#290=ORIENTED_EDGE('',*,*,#224,.T.);
#291=ORIENTED_EDGE('',*,*,#206,.F.);
#292=ORIENTED_EDGE('',*,*,#226,.F.);
#293=ORIENTED_EDGE('',*,*,#227,.F.);
#294=ORIENTED_EDGE('',*,*,#226,.T.);
#295=ORIENTED_EDGE('',*,*,#205,.F.);
#296=ORIENTED_EDGE('',*,*,#228,.F.);
#297=ORIENTED_EDGE('',*,*,#229,.T.);
#298=ORIENTED_EDGE('',*,*,#228,.T.);
#299=ORIENTED_EDGE('',*,*,#200,.F.);
#300=ORIENTED_EDGE('',*,*,#204,.F.);
#301=ORIENTED_EDGE('',*,*,#230,.F.);
#302=ORIENTED_EDGE('',*,*,#231,.T.);
#303=ORIENTED_EDGE('',*,*,#230,.T.);
#304=ORIENTED_EDGE('',*,*,#232,.F.);
#305=ORIENTED_EDGE('',*,*,#215,.F.);
#306=ORIENTED_EDGE('',*,*,#203,.F.);
#307=ORIENTED_EDGE('',*,*,#219,.T.);
#308=ORIENTED_EDGE('',*,*,#216,.T.);
#309=ORIENTED_EDGE('',*,*,#232,.T.);
#310=ORIENTED_EDGE('',*,*,#209,.T.);
#311=ORIENTED_EDGE('',*,*,#231,.F.);
#312=ORIENTED_EDGE('',*,*,#214,.F.);
#313=ORIENTED_EDGE('',*,*,#218,.T.);
#314=ORIENTED_EDGE('',*,*,#221,.F.);
#315=ORIENTED_EDGE('',*,*,#223,.F.);
#316=ORIENTED_EDGE('',*,*,#225,.F.);
#317=ORIENTED_EDGE('',*,*,#227,.T.);
#318=ORIENTED_EDGE('',*,*,#229,.F.);
#319=ORIENTED_EDGE('',*,*,#213,.F.);
#320=ORIENTED_EDGE('',*,*,#211,.F.);
#321=SPHERICAL_SURFACE('',#369,7.);
#322=ADVANCED_FACE('',(#91),#321,.T.);
#323=ADVANCED_FACE('',(#92),#75,.F.);
#324=ADVANCED_FACE('',(#93),#26,.T.);
#325=ADVANCED_FACE('',(#94),#24,.T.);
#326=ADVANCED_FACE('',(#95),#76,.T.);
#327=ADVANCED_FACE('',(#96,#19),#27,.T.);
#328=ADVANCED_FACE('',(#97),#25,.F.);
#329=ADVANCED_FACE('',(#98,#20),#28,.T.);
#330=ADVANCED_FACE('',(#99),#77,.F.);
#331=ADVANCED_FACE('',(#100),#78,.F.);
#332=ADVANCED_FACE('',(#101),#79,.T.);
#333=ADVANCED_FACE('',(#102),#29,.T.);
#334=ADVANCED_FACE('',(#103),#80,.T.);
#335=ADVANCED_FACE('',(#104),#30,.T.);
#336=ADVANCED_FACE('',(#105),#81,.T.);
#337=ADVANCED_FACE('',(#106),#31,.T.);
#338=ADVANCED_FACE('',(#107),#82,.T.);
#339=ADVANCED_FACE('',(#108),#32,.T.);
#340=ADVANCED_FACE('',(#109,#21),#33,.T.);
#341=ADVANCED_FACE('',(#110,#22,#23),#34,.F.);
#342=CLOSED_SHELL('',(#322));
#343=CLOSED_SHELL('',(#323,#324,#325,#326,#327,#328,#329,#330,#331,#332,
#333,#334,#335,#336,#337,#338,#339,#340,#341));
#344=DERIVED_UNIT_ELEMENT(#348,1.);
#345=DERIVED_UNIT_ELEMENT(#641,-3.);
#346=DERIVED_UNIT_ELEMENT(#348,1.);
#347=DERIVED_UNIT_ELEMENT(#641,-3.);
#348=(
MASS_UNIT()
NAMED_UNIT(*)
SI_UNIT(.KILO.,.GRAM.)
);
#349=DERIVED_UNIT((#344,#345));
#350=DERIVED_UNIT((#346,#347));
#351=MEASURE_REPRESENTATION_ITEM('density measure',
POSITIVE_RATIO_MEASURE(7850.),#349);
#352=MEASURE_REPRESENTATION_ITEM('density measure',
POSITIVE_RATIO_MEASURE(7850.),#350);
#353=PROPERTY_DEFINITION_REPRESENTATION(#363,#357);
#354=PROPERTY_DEFINITION_REPRESENTATION(#364,#358);
#355=PROPERTY_DEFINITION_REPRESENTATION(#365,#359);
#356=PROPERTY_DEFINITION_REPRESENTATION(#366,#360);
#357=REPRESENTATION('material name',(#361),#637);
#358=REPRESENTATION('density',(#351),#637);
#359=REPRESENTATION('material name',(#362),#638);
#360=REPRESENTATION('density',(#352),#638);
#361=DESCRIPTIVE_REPRESENTATION_ITEM('Steel','Steel');
#362=DESCRIPTIVE_REPRESENTATION_ITEM('Steel','Steel');
#363=PROPERTY_DEFINITION('material property','material name',#657);
#364=PROPERTY_DEFINITION('material property','density of part',#657);
#365=PROPERTY_DEFINITION('material property','material name',#658);
#366=PROPERTY_DEFINITION('material property','density of part',#658);
#367=AXIS2_PLACEMENT_3D('placement',#534,#416,#417);
#368=AXIS2_PLACEMENT_3D('placement',#535,#418,#419);
#369=AXIS2_PLACEMENT_3D('',#536,#420,#421);
#370=AXIS2_PLACEMENT_3D('',#539,#422,#423);
#371=AXIS2_PLACEMENT_3D('placement',#540,#424,#425);
#372=AXIS2_PLACEMENT_3D('',#541,#426,#427);
#373=AXIS2_PLACEMENT_3D('',#543,#428,#429);
#374=AXIS2_PLACEMENT_3D('',#546,#431,#432);
#375=AXIS2_PLACEMENT_3D('',#547,#433,#434);
#376=AXIS2_PLACEMENT_3D('',#548,#435,#436);
#377=AXIS2_PLACEMENT_3D('',#550,#437,#438);
#378=AXIS2_PLACEMENT_3D('',#552,#439,#440);
#379=AXIS2_PLACEMENT_3D('',#553,#441,#442);
#380=AXIS2_PLACEMENT_3D('',#554,#443,#444);
#381=AXIS2_PLACEMENT_3D('',#558,#446,#447);
#382=AXIS2_PLACEMENT_3D('',#559,#448,#449);
#383=AXIS2_PLACEMENT_3D('',#560,#450,#451);
#384=AXIS2_PLACEMENT_3D('',#561,#452,#453);
#385=AXIS2_PLACEMENT_3D('',#563,#454,#455);
#386=AXIS2_PLACEMENT_3D('',#565,#456,#457);
#387=AXIS2_PLACEMENT_3D('',#567,#458,#459);
#388=AXIS2_PLACEMENT_3D('',#569,#460,#461);
#389=AXIS2_PLACEMENT_3D('',#571,#462,#463);
#390=AXIS2_PLACEMENT_3D('',#572,#464,#465);
#391=AXIS2_PLACEMENT_3D('',#573,#466,#467);
#392=AXIS2_PLACEMENT_3D('',#577,#469,#470);
#393=AXIS2_PLACEMENT_3D('',#580,#472,#473);
#394=AXIS2_PLACEMENT_3D('',#581,#474,#475);
#395=AXIS2_PLACEMENT_3D('',#583,#476,#477);
#396=AXIS2_PLACEMENT_3D('',#586,#479,#480);
#397=AXIS2_PLACEMENT_3D('',#587,#481,#482);
#398=AXIS2_PLACEMENT_3D('',#590,#484,#485);
#399=AXIS2_PLACEMENT_3D('',#591,#486,#487);
#400=AXIS2_PLACEMENT_3D('',#594,#488,#489);
#401=AXIS2_PLACEMENT_3D('',#598,#491,#492);
#402=AXIS2_PLACEMENT_3D('',#600,#494,#495);
#403=AXIS2_PLACEMENT_3D('',#605,#499,#500);
#404=AXIS2_PLACEMENT_3D('',#607,#501,#502);
#405=AXIS2_PLACEMENT_3D('',#609,#504,#505);
#406=AXIS2_PLACEMENT_3D('',#613,#508,#509);
#407=AXIS2_PLACEMENT_3D('',#615,#510,#511);
#408=AXIS2_PLACEMENT_3D('',#617,#513,#514);
#409=AXIS2_PLACEMENT_3D('',#621,#517,#518);
#410=AXIS2_PLACEMENT_3D('',#623,#519,#520);
#411=AXIS2_PLACEMENT_3D('',#625,#522,#523);
#412=AXIS2_PLACEMENT_3D('',#628,#526,#527);
#413=AXIS2_PLACEMENT_3D('',#629,#528,#529);
#414=AXIS2_PLACEMENT_3D('',#630,#530,#531);
#415=AXIS2_PLACEMENT_3D('',#631,#532,#533);
#416=DIRECTION('axis',(0.,0.,1.));
#417=DIRECTION('refdir',(1.,0.,0.));
#418=DIRECTION('axis',(0.,0.,1.));
#419=DIRECTION('refdir',(1.,0.,0.));
#420=DIRECTION('center_axis',(6.12323399573677E-17,0.,1.));
#421=DIRECTION('ref_axis',(1.,0.,0.));
#422=DIRECTION('center_axis',(1.22464679914735E-16,-1.,0.));
#423=DIRECTION('ref_axis',(-1.,-1.22464679914735E-16,0.));
#424=DIRECTION('axis',(0.,0.,1.));
#425=DIRECTION('refdir',(1.,0.,0.));
#426=DIRECTION('center_axis',(0.,0.,-1.));
#427=DIRECTION('ref_axis',(-1.,0.,0.));
#428=DIRECTION('center_axis',(0.,0.,-1.));
#429=DIRECTION('ref_axis',(-1.,0.,0.));
#430=DIRECTION('',(0.,0.,-1.));
#431=DIRECTION('center_axis',(0.,0.,-1.));
#432=DIRECTION('ref_axis',(-1.,0.,0.));
#433=DIRECTION('center_axis',(0.,0.,1.));
#434=DIRECTION('ref_axis',(-1.,0.,0.));
#435=DIRECTION('center_axis',(0.,0.,1.));
#436=DIRECTION('ref_axis',(1.,0.,0.));
#437=DIRECTION('center_axis',(0.,0.,-1.));
#438=DIRECTION('ref_axis',(1.,0.,0.));
#439=DIRECTION('center_axis',(1.22464679914735E-16,-1.,0.));
#440=DIRECTION('ref_axis',(-1.,-1.22464679914735E-16,0.));
#441=DIRECTION('center_axis',(0.,0.,1.));
#442=DIRECTION('ref_axis',(1.,0.,0.));
#443=DIRECTION('center_axis',(0.,0.,1.));
#444=DIRECTION('ref_axis',(1.,0.,0.));
#445=DIRECTION('',(0.,0.,-1.));
#446=DIRECTION('center_axis',(0.,0.,-1.));
#447=DIRECTION('ref_axis',(1.,0.,0.));
#448=DIRECTION('center_axis',(0.,0.,-1.));
#449=DIRECTION('ref_axis',(1.,0.,0.));
#450=DIRECTION('center_axis',(0.,0.,1.));
#451=DIRECTION('ref_axis',(1.,0.,0.));
#452=DIRECTION('center_axis',(0.,0.,-1.));
#453=DIRECTION('ref_axis',(-1.,0.,0.));
#454=DIRECTION('center_axis',(-1.22464679914735E-16,-1.,0.));
#455=DIRECTION('ref_axis',(1.,-1.22464679914735E-16,0.));
#456=DIRECTION('center_axis',(0.,0.,1.));
#457=DIRECTION('ref_axis',(1.,0.,0.));
#458=DIRECTION('center_axis',(0.,0.,1.));
#459=DIRECTION('ref_axis',(1.,0.,0.));
#460=DIRECTION('center_axis',(0.,0.,1.));
#461=DIRECTION('ref_axis',(1.,0.,0.));
#462=DIRECTION('center_axis',(0.,0.,1.));
#463=DIRECTION('ref_axis',(1.,0.,0.));
#464=DIRECTION('center_axis',(0.,0.,1.));
#465=DIRECTION('ref_axis',(1.,0.,0.));
#466=DIRECTION('center_axis',(0.,0.,1.));
#467=DIRECTION('ref_axis',(1.,0.,0.));
#468=DIRECTION('',(-0.648351648351674,0.761341014315968,0.));
#469=DIRECTION('center_axis',(0.,0.,1.));
#470=DIRECTION('ref_axis',(1.,0.,0.));
#471=DIRECTION('',(-0.648351648351657,-0.761341014315982,0.));
#472=DIRECTION('center_axis',(0.,0.,-1.));
#473=DIRECTION('ref_axis',(1.,0.,0.));
#474=DIRECTION('center_axis',(0.,0.,1.));
#475=DIRECTION('ref_axis',(1.,0.,0.));
#476=DIRECTION('center_axis',(0.,0.,-1.));
#477=DIRECTION('ref_axis',(1.,0.,0.));
#478=DIRECTION('',(0.,0.,-1.));
#479=DIRECTION('center_axis',(0.,0.,-1.));
#480=DIRECTION('ref_axis',(1.,0.,0.));
#481=DIRECTION('center_axis',(0.,0.,1.));
#482=DIRECTION('ref_axis',(1.,0.,0.));
#483=DIRECTION('',(0.,0.,-1.));
#484=DIRECTION('center_axis',(0.,0.,-1.));
#485=DIRECTION('ref_axis',(1.,0.,0.));
#486=DIRECTION('center_axis',(0.,0.,1.));
#487=DIRECTION('ref_axis',(1.,0.,0.));
#488=DIRECTION('center_axis',(0.,0.,1.));
#489=DIRECTION('ref_axis',(1.,0.,0.));
#490=DIRECTION('',(0.,0.,1.));
#491=DIRECTION('center_axis',(0.,0.,1.));
#492=DIRECTION('ref_axis',(1.,0.,0.));
#493=DIRECTION('',(0.,0.,1.));
#494=DIRECTION('center_axis',(-0.761341014315982,-0.648351648351657,0.));
#495=DIRECTION('ref_axis',(0.648351648351657,-0.761341014315982,0.));
#496=DIRECTION('',(-0.648351648351657,0.761341014315982,0.));
#497=DIRECTION('',(0.648351648351657,-0.761341014315982,0.));
#498=DIRECTION('',(0.,0.,1.));
#499=DIRECTION('center_axis',(0.,0.,1.));
#500=DIRECTION('ref_axis',(-1.,1.22464679914735E-16,0.));
#501=DIRECTION('center_axis',(0.,0.,1.));
#502=DIRECTION('ref_axis',(1.,0.,0.));
#503=DIRECTION('',(0.,0.,1.));
#504=DIRECTION('center_axis',(-0.761341014315982,0.648351648351657,0.));
#505=DIRECTION('ref_axis',(-0.648351648351657,-0.761341014315982,0.));
#506=DIRECTION('',(-0.648351648351657,-0.761341014315982,0.));
#507=DIRECTION('',(0.,0.,1.));
#508=DIRECTION('center_axis',(0.,0.,1.));
#509=DIRECTION('ref_axis',(1.,0.,0.));
#510=DIRECTION('center_axis',(0.,0.,1.));
#511=DIRECTION('ref_axis',(1.,0.,0.));
#512=DIRECTION('',(0.,0.,1.));
#513=DIRECTION('center_axis',(0.761341014315968,0.648351648351674,0.));
#514=DIRECTION('ref_axis',(-0.648351648351674,0.761341014315968,0.));
#515=DIRECTION('',(0.648351648351674,-0.761341014315968,0.));
#516=DIRECTION('',(0.,0.,1.));
#517=DIRECTION('center_axis',(0.,0.,1.));
#518=DIRECTION('ref_axis',(1.,0.,0.));
#519=DIRECTION('center_axis',(0.,0.,1.));
#520=DIRECTION('ref_axis',(1.,0.,0.));
#521=DIRECTION('',(0.,0.,1.));
#522=DIRECTION('center_axis',(0.761341014315968,-0.648351648351674,0.));
#523=DIRECTION('ref_axis',(0.648351648351674,0.761341014315968,0.));
#524=DIRECTION('',(0.648351648351674,0.761341014315968,0.));
#525=DIRECTION('',(0.648351648351674,0.761341014315968,0.));
#526=DIRECTION('center_axis',(0.,0.,1.));
#527=DIRECTION('ref_axis',(1.,0.,0.));
#528=DIRECTION('center_axis',(0.,0.,1.));
#529=DIRECTION('ref_axis',(1.,0.,0.));
#530=DIRECTION('',(0.,0.,1.));
#531=DIRECTION('',(1.,0.,0.));
#532=DIRECTION('',(0.,0.,1.));
#533=DIRECTION('',(1.,0.,0.));
#534=CARTESIAN_POINT('',(0.,0.,0.));
#535=CARTESIAN_POINT('',(0.,0.,0.));
#536=CARTESIAN_POINT('Origin',(0.,0.,13.5));
#537=CARTESIAN_POINT('',(-4.28626379701574E-16,-5.2491592393165E-32,20.5));
#538=CARTESIAN_POINT('',(-4.28626379701574E-16,-5.2491592393165E-32,6.5));
#539=CARTESIAN_POINT('Origin',(0.,0.,13.5));
#540=CARTESIAN_POINT('',(0.,0.,0.));
#541=CARTESIAN_POINT('Origin',(0.,0.,16.));
#542=CARTESIAN_POINT('',(7.75,9.49101269339199E-16,16.));
#543=CARTESIAN_POINT('Origin',(0.,0.,16.));
#544=CARTESIAN_POINT('',(7.75,9.49101269339199E-16,6.));
#545=CARTESIAN_POINT('',(7.75,-9.49101269339199E-16,16.));
#546=CARTESIAN_POINT('Origin',(0.,0.,6.));
#547=CARTESIAN_POINT('Origin',(0.,0.,6.));
#548=CARTESIAN_POINT('Origin',(0.,0.,13.));
#549=CARTESIAN_POINT('',(-11.25,1.37772764904077E-15,16.));
#550=CARTESIAN_POINT('Origin',(0.,0.,16.));
#551=CARTESIAN_POINT('',(-14.25,-1.74512168878498E-15,13.));
#552=CARTESIAN_POINT('Origin',(-11.25,-1.37772764904077E-15,13.));
#553=CARTESIAN_POINT('Origin',(0.,0.,13.));
#554=CARTESIAN_POINT('Origin',(0.,0.,1.));
#555=CARTESIAN_POINT('',(-14.25,1.74512168878498E-15,3.));
#556=CARTESIAN_POINT('',(-14.25,-1.74512168878498E-15,1.));
#557=CARTESIAN_POINT('',(14.25,-1.74512168878498E-15,3.));
#558=CARTESIAN_POINT('Origin',(0.,0.,3.));
#559=CARTESIAN_POINT('Origin',(0.,0.,3.));
#560=CARTESIAN_POINT('Origin',(0.,0.,16.));
#561=CARTESIAN_POINT('Origin',(0.,0.,3.));
#562=CARTESIAN_POINT('',(16.25,-1.99005104861445E-15,1.));
#563=CARTESIAN_POINT('Origin',(16.25,-1.99005104861445E-15,3.));
#564=CARTESIAN_POINT('',(12.3717914826352,10.5357142857143,1.));
#565=CARTESIAN_POINT('Origin',(0.,0.,1.));
#566=CARTESIAN_POINT('',(-12.3717914826349,10.5357142857143,1.));
#567=CARTESIAN_POINT('Origin',(0.,0.,1.));
#568=CARTESIAN_POINT('',(-12.3717914826349,-10.5357142857143,1.));
#569=CARTESIAN_POINT('Origin',(0.,0.,1.));
#570=CARTESIAN_POINT('',(12.3717914826352,-10.5357142857143,1.));
#571=CARTESIAN_POINT('Origin',(0.,0.,1.));
#572=CARTESIAN_POINT('Origin',(0.,0.,1.));
#573=CARTESIAN_POINT('Origin',(0.,0.,1.));
#574=CARTESIAN_POINT('',(1.14201152147649,23.7225274725241,1.));
#575=CARTESIAN_POINT('',(1.14201152147649,23.7225274725241,1.));
#576=CARTESIAN_POINT('',(-1.14201152147399,23.7225274725272,1.));
#577=CARTESIAN_POINT('Origin',(3.33066907387547E-16,22.75,1.));
#578=CARTESIAN_POINT('',(-1.14201152147399,23.7225274725272,1.));
#579=CARTESIAN_POINT('',(-2.,19.25,1.));
#580=CARTESIAN_POINT('Origin',(1.11022302462516E-15,19.25,1.));
#581=CARTESIAN_POINT('Origin',(1.11022302462516E-15,-19.25,0.));
#582=CARTESIAN_POINT('',(-2.,-19.25,1.));
#583=CARTESIAN_POINT('Origin',(1.11022302462516E-15,-19.25,1.));
#584=CARTESIAN_POINT('',(-2.,-19.25,0.));
#585=CARTESIAN_POINT('',(-2.,-19.25,0.));
#586=CARTESIAN_POINT('Origin',(1.11022302462516E-15,-19.25,0.));
#587=CARTESIAN_POINT('Origin',(1.11022302462516E-15,19.25,0.));
#588=CARTESIAN_POINT('',(-2.,19.25,0.));
#589=CARTESIAN_POINT('',(-2.,19.25,0.));
#590=CARTESIAN_POINT('Origin',(1.11022302462516E-15,19.25,0.));
#591=CARTESIAN_POINT('Origin',(3.33066907387547E-16,-22.75,0.));
#592=CARTESIAN_POINT('',(-1.14201152147399,-23.7225274725272,0.));
#593=CARTESIAN_POINT('',(1.14201152147649,-23.7225274725241,0.));
#594=CARTESIAN_POINT('Origin',(3.33066907387547E-16,-22.75,0.));
#595=CARTESIAN_POINT('',(1.14201152147649,-23.7225274725241,1.));
#596=CARTESIAN_POINT('',(1.14201152147649,-23.7225274725241,0.));
#597=CARTESIAN_POINT('',(-1.14201152147399,-23.7225274725272,1.));
#598=CARTESIAN_POINT('Origin',(3.33066907387547E-16,-22.75,1.));
#599=CARTESIAN_POINT('',(-1.14201152147399,-23.7225274725272,0.));
#600=CARTESIAN_POINT('Origin',(-12.3717914826349,-10.5357142857143,0.));
#601=CARTESIAN_POINT('',(-12.3717914826349,-10.5357142857143,0.));
#602=CARTESIAN_POINT('',(-1.14201152147399,-23.7225274725272,0.));
#603=CARTESIAN_POINT('',(-1.14201152147399,-23.7225274725272,1.));
#604=CARTESIAN_POINT('',(-12.3717914826349,-10.5357142857143,0.));
#605=CARTESIAN_POINT('Origin',(0.,0.,0.));
#606=CARTESIAN_POINT('',(-12.3717914826349,10.5357142857143,0.));
#607=CARTESIAN_POINT('Origin',(0.,0.,0.));
#608=CARTESIAN_POINT('',(-12.3717914826349,10.5357142857143,0.));
#609=CARTESIAN_POINT('Origin',(-1.14201152147399,23.7225274725272,0.));
#610=CARTESIAN_POINT('',(-1.14201152147399,23.7225274725272,0.));
#611=CARTESIAN_POINT('',(-1.14201152147399,23.7225274725272,0.));
#612=CARTESIAN_POINT('',(-1.14201152147399,23.7225274725272,0.));
#613=CARTESIAN_POINT('Origin',(3.33066907387547E-16,22.75,0.));
#614=CARTESIAN_POINT('',(1.14201152147649,23.7225274725241,0.));
#615=CARTESIAN_POINT('Origin',(3.33066907387547E-16,22.75,0.));
#616=CARTESIAN_POINT('',(1.14201152147649,23.7225274725241,0.));
#617=CARTESIAN_POINT('Origin',(12.3717914826352,10.5357142857143,0.));
#618=CARTESIAN_POINT('',(12.3717914826352,10.5357142857143,0.));
#619=CARTESIAN_POINT('',(1.14201152147649,23.7225274725241,0.));
#620=CARTESIAN_POINT('',(12.3717914826352,10.5357142857143,0.));
#621=CARTESIAN_POINT('Origin',(0.,0.,0.));
#622=CARTESIAN_POINT('',(12.3717914826352,-10.5357142857143,0.));
#623=CARTESIAN_POINT('Origin',(0.,0.,0.));
#624=CARTESIAN_POINT('',(12.3717914826352,-10.5357142857143,0.));
#625=CARTESIAN_POINT('Origin',(1.14201152147649,-23.7225274725241,0.));
#626=CARTESIAN_POINT('',(1.14201152147649,-23.7225274725241,0.));
#627=CARTESIAN_POINT('',(1.14201152147649,-23.7225274725241,1.));
#628=CARTESIAN_POINT('Origin',(0.,0.,1.));
#629=CARTESIAN_POINT('Origin',(0.,0.,0.));
#630=CARTESIAN_POINT('',(0.,0.,0.));
#631=CARTESIAN_POINT('',(0.,0.,0.));
#632=UNCERTAINTY_MEASURE_WITH_UNIT(LENGTH_MEASURE(0.01),#640,
'DISTANCE_ACCURACY_VALUE',
'Maximum model space distance between geometric entities at asserted c
onnectivities');
#633=UNCERTAINTY_MEASURE_WITH_UNIT(LENGTH_MEASURE(0.01),#640,
'DISTANCE_ACCURACY_VALUE',
'Maximum model space distance between geometric entities at asserted c
onnectivities');
#634=UNCERTAINTY_MEASURE_WITH_UNIT(LENGTH_MEASURE(0.01),#640,
'DISTANCE_ACCURACY_VALUE',
'Maximum model space distance between geometric entities at asserted c
onnectivities');
#635=UNCERTAINTY_MEASURE_WITH_UNIT(LENGTH_MEASURE(0.01),#640,
'DISTANCE_ACCURACY_VALUE',
'Maximum model space distance between geometric entities at asserted c
onnectivities');
#636=(
GEOMETRIC_REPRESENTATION_CONTEXT(3)
GLOBAL_UNCERTAINTY_ASSIGNED_CONTEXT((#632))
GLOBAL_UNIT_ASSIGNED_CONTEXT((#640,#642,#643))
REPRESENTATION_CONTEXT('','3D')
);
#637=(
GEOMETRIC_REPRESENTATION_CONTEXT(3)
GLOBAL_UNCERTAINTY_ASSIGNED_CONTEXT((#633))
GLOBAL_UNIT_ASSIGNED_CONTEXT((#640,#642,#643))
REPRESENTATION_CONTEXT('','3D')
);
#638=(
GEOMETRIC_REPRESENTATION_CONTEXT(3)
GLOBAL_UNCERTAINTY_ASSIGNED_CONTEXT((#634))
GLOBAL_UNIT_ASSIGNED_CONTEXT((#640,#642,#643))
REPRESENTATION_CONTEXT('','3D')
);
#639=(
GEOMETRIC_REPRESENTATION_CONTEXT(3)
GLOBAL_UNCERTAINTY_ASSIGNED_CONTEXT((#635))
GLOBAL_UNIT_ASSIGNED_CONTEXT((#640,#642,#643))
REPRESENTATION_CONTEXT('','3D')
);
#640=(
LENGTH_UNIT()
NAMED_UNIT(*)
SI_UNIT(.MILLI.,.METRE.)
);
#641=(
LENGTH_UNIT()
NAMED_UNIT(*)
SI_UNIT($,.METRE.)
);
#642=(
NAMED_UNIT(*)
PLANE_ANGLE_UNIT()
SI_UNIT($,.RADIAN.)
);
#643=(
NAMED_UNIT(*)
SI_UNIT($,.STERADIAN.)
SOLID_ANGLE_UNIT()
);
#644=SHAPE_DEFINITION_REPRESENTATION(#647,#652);
#645=SHAPE_DEFINITION_REPRESENTATION(#648,#653);
#646=SHAPE_DEFINITION_REPRESENTATION(#649,#654);
#647=PRODUCT_DEFINITION_SHAPE('',$,#656);
#648=PRODUCT_DEFINITION_SHAPE('',$,#657);
#649=PRODUCT_DEFINITION_SHAPE('',$,#658);
#650=PRODUCT_DEFINITION_SHAPE($,$,#17);
#651=PRODUCT_DEFINITION_SHAPE($,$,#18);
#652=SHAPE_REPRESENTATION('',(#367,#414,#415),#636);
#653=SHAPE_REPRESENTATION('',(#368),#637);
#654=SHAPE_REPRESENTATION('',(#371),#638);
#655=PRODUCT_DEFINITION_CONTEXT('part definition',#666,'design');
#656=PRODUCT_DEFINITION('caster wheel','caster wheel v2',#659,#655);
#657=PRODUCT_DEFINITION('Sphere','Sphere',#660,#655);
#658=PRODUCT_DEFINITION('Case','Case',#661,#655);
#659=PRODUCT_DEFINITION_FORMATION('',$,#668);
#660=PRODUCT_DEFINITION_FORMATION('',$,#669);
#661=PRODUCT_DEFINITION_FORMATION('',$,#670);
#662=PRODUCT_RELATED_PRODUCT_CATEGORY('caster wheel v2',
'caster wheel v2',(#668));
#663=PRODUCT_RELATED_PRODUCT_CATEGORY('Sphere','Sphere',(#669));
#664=PRODUCT_RELATED_PRODUCT_CATEGORY('Case','Case',(#670));
#665=APPLICATION_PROTOCOL_DEFINITION('international standard',
'automotive_design',2009,#666);
#666=APPLICATION_CONTEXT(
'Core Data for Automotive Mechanical Design Process');
#667=PRODUCT_CONTEXT('part definition',#666,'mechanical');
#668=PRODUCT('caster wheel','caster wheel v2',$,(#667));
#669=PRODUCT('Sphere','Sphere',$,(#667));
#670=PRODUCT('Case','Case',$,(#667));
#671=PRESENTATION_STYLE_ASSIGNMENT((#674));
#672=PRESENTATION_STYLE_ASSIGNMENT((#675));
#673=PRESENTATION_STYLE_ASSIGNMENT((#676));
#674=SURFACE_STYLE_USAGE(.BOTH.,#677);
#675=SURFACE_STYLE_USAGE(.BOTH.,#678);
#676=SURFACE_STYLE_USAGE(.BOTH.,#679);
#677=SURFACE_SIDE_STYLE('',(#680));
#678=SURFACE_SIDE_STYLE('',(#681));
#679=SURFACE_SIDE_STYLE('',(#682));
#680=SURFACE_STYLE_FILL_AREA(#683);
#681=SURFACE_STYLE_FILL_AREA(#684);
#682=SURFACE_STYLE_FILL_AREA(#685);
#683=FILL_AREA_STYLE('Steel - Satin',(#686));
#684=FILL_AREA_STYLE('Aluminum - Anodized Rough (Grey)',(#687));
#685=FILL_AREA_STYLE('Aluminum - Polished',(#688));
#686=FILL_AREA_STYLE_COLOUR('Steel - Satin',#689);
#687=FILL_AREA_STYLE_COLOUR('Aluminum - Anodized Rough (Grey)',#690);
#688=FILL_AREA_STYLE_COLOUR('Aluminum - Polished',#691);
#689=COLOUR_RGB('Steel - Satin',0.627450980392157,0.627450980392157,0.627450980392157);
#690=COLOUR_RGB('Aluminum - Anodized Rough (Grey)',0.537254901960784,0.537254901960784,
0.537254901960784);
#691=COLOUR_RGB('Aluminum - Polished',0.96078431372549,0.96078431372549,
0.964705882352941);
ENDSEC;
END-ISO-10303-21;
